<?xml version="1.0" encoding="UTF-8"?>
<svg version="1.1" xmlns="http://www.w3.org/2000/svg" width="512" height="512">
<path d="M0 0 C1.63493021 -0.00461417 3.26985626 -0.01097055 4.90477371 -0.01890898 C9.37801122 -0.03555459 13.85090588 -0.02737772 18.32414436 -0.0149641 C23.15585742 -0.00589636 27.98751242 -0.01989189 32.81921387 -0.03088379 C42.27684564 -0.04865519 51.73435032 -0.04483516 61.19198704 -0.03323323 C68.87950749 -0.02419376 76.56699236 -0.02297713 84.2545166 -0.02732849 C85.34931752 -0.02794142 86.44411845 -0.02855436 87.57209516 -0.02918586 C89.79627451 -0.03046478 92.02045386 -0.03176164 94.2446332 -0.03307623 C115.09286226 -0.04447799 135.94102093 -0.03137464 156.78923845 -0.00987476 C174.67170203 0.00799584 192.55406174 0.00489162 210.43652344 -0.0135498 C231.21097397 -0.03496363 251.98536282 -0.04337939 272.75982285 -0.03110075 C274.97574615 -0.02982658 277.19166945 -0.02856909 279.40759277 -0.02732849 C281.04293877 -0.02640284 281.04293877 -0.02640284 282.71132207 -0.02545848 C290.38817022 -0.02200713 298.0649792 -0.02782932 305.74182129 -0.0372467 C315.09940077 -0.04847374 324.45684607 -0.04541176 333.81441021 -0.02412373 C338.58732169 -0.01362286 343.36000957 -0.00947511 348.13291931 -0.02272034 C352.50513244 -0.03466995 356.87691542 -0.02803946 361.24908972 -0.00681013 C362.82768884 -0.00235494 364.40632456 -0.00458593 365.9849 -0.01431328 C378.87645214 -0.0876369 388.02031015 1.80300708 397.56152344 10.86340332 C404.23953673 18.64484049 406.98612402 27.01625178 406.96527576 37.05968571 C406.96762799 37.82752718 406.96998022 38.59536864 406.97240373 39.38647804 C406.97909174 41.97450878 406.97863557 44.56248929 406.97822571 47.15052795 C406.98152446 49.0188007 406.98525005 50.88707273 406.98936719 52.75534385 C406.99939408 57.90138529 407.00310509 63.04741506 407.0057565 68.19346488 C407.00965751 73.73899242 407.019236 79.28451071 407.02796936 84.83003235 C407.04773964 98.22860778 407.05780076 111.62718397 407.06669715 125.02577034 C407.07107918 131.33376436 407.07644622 137.64175754 407.08168602 143.9497509 C407.09869896 164.91625695 407.11321827 185.88276284 407.12043476 206.84927464 C407.12090952 208.20522195 407.12138541 209.56116926 407.12186242 210.91711658 C407.1220988 211.58954094 407.12233518 212.2619653 407.12257871 212.95476615 C407.1237799 216.36156774 407.12499536 219.76836932 407.1262207 223.1751709 C407.12646085 223.85125959 407.126701 224.52734827 407.12694843 225.2239245 C407.13483987 247.14015214 407.15826829 269.05632563 407.19077665 290.97252962 C407.22508797 314.14658035 407.24478599 337.3206007 407.248079 360.49468082 C407.2502449 373.12589363 407.25900524 385.75702687 407.28454018 398.38821602 C407.30623552 409.14502299 407.3143033 419.90173106 407.30457339 430.65855742 C407.30002534 436.1464724 407.30194452 441.63418326 407.32133484 447.12207031 C407.33894287 452.14896833 407.33798775 457.17551298 407.32243755 462.20241462 C407.32005791 464.01809543 407.32440345 465.83380056 407.3362662 467.64944417 C407.4173071 480.87550526 406.40953967 492.41948395 396.83105469 502.50793457 C386.74409552 511.87750224 375.99409986 513.09797923 362.73803711 513.01586914 C361.11135647 513.02048337 359.48468001 513.02683979 357.8580122 513.03477812 C353.40757725 513.05142289 348.95748692 513.04324725 344.50705099 513.03083324 C339.69987793 513.02176515 334.8927632 513.0357612 330.08560181 513.04675293 C320.67609676 513.06452396 311.26671946 513.06070446 301.85720944 513.04910237 C294.20878124 513.04006276 286.5603888 513.03884633 278.91195679 513.04319763 C277.82270659 513.04381056 276.73345639 513.0444235 275.6111986 513.045055 C273.39829325 513.04633392 271.1853879 513.04763078 268.97248256 513.04894537 C248.2301236 513.06034702 227.4878354 513.04724395 206.74548805 513.0257439 C188.95398785 513.00787331 171.16259206 513.01097753 153.37109375 513.02941895 C132.70211856 513.05083296 112.03320535 513.05924842 91.36422062 513.04696989 C89.15953129 513.04569572 86.95484194 513.04443823 84.75015259 513.04319763 C83.66545014 513.04258053 82.58074769 513.04196343 81.46317548 513.04132763 C73.82540057 513.03787633 66.18766504 513.04369834 58.54989624 513.05311584 C49.23989365 513.06434309 39.93002592 513.06128045 30.62003875 513.03999287 C25.87143008 513.02949229 21.12304616 513.02534376 16.37443924 513.03858948 C12.0244304 513.05053969 7.67485388 513.04390763 3.32488406 513.02267927 C1.75436027 513.01822433 0.1837997 513.0204545 -1.38670027 513.03018242 C-13.46893996 513.0992599 -23.90091769 511.52038319 -32.94628906 502.79309082 C-40.34195492 494.89708393 -43.32536707 486.65113248 -43.30316639 475.95618343 C-43.30551862 475.18834196 -43.30787085 474.4205005 -43.31029436 473.6293911 C-43.31698237 471.04136036 -43.3165262 468.45337985 -43.31611633 465.86534119 C-43.31941508 463.99706844 -43.32314067 462.12879641 -43.32725781 460.26052529 C-43.3372847 455.11448385 -43.34099572 449.96845408 -43.34364712 444.82240427 C-43.34754814 439.27687672 -43.35712663 433.73135843 -43.36585999 428.18583679 C-43.38563027 414.78726136 -43.39569138 401.38868517 -43.40458778 387.9900988 C-43.40896981 381.68210478 -43.41433684 375.3741116 -43.41957664 369.06611824 C-43.43658959 348.09961219 -43.4511089 327.1331063 -43.45832539 306.16659451 C-43.45880014 304.81064719 -43.45927603 303.45469988 -43.45975305 302.09875256 C-43.45998942 301.4263282 -43.4602258 300.75390384 -43.46046934 300.06110299 C-43.46167053 296.6543014 -43.46288598 293.24749982 -43.46411133 289.84069824 C-43.46447155 288.82656521 -43.46447155 288.82656521 -43.46483906 287.79194464 C-43.47273049 265.87571701 -43.49615891 243.95954351 -43.52866727 222.04333952 C-43.56297859 198.86928879 -43.58267662 175.69526844 -43.58596963 152.52118832 C-43.58813552 139.88997551 -43.59689586 127.25884227 -43.6224308 114.62765312 C-43.64412615 103.87084615 -43.65219392 93.11413808 -43.64246402 82.35731172 C-43.63791597 76.86939674 -43.63983514 71.38168588 -43.65922546 65.89379883 C-43.6768335 60.86690081 -43.67587838 55.84035616 -43.66032817 50.81345452 C-43.65794853 48.99777371 -43.66229408 47.18206858 -43.67415682 45.36642497 C-43.75470976 32.22000141 -42.83969832 20.55671236 -33.26660156 10.51184082 C-23.27536302 0.94202535 -13.36257171 -0.08234157 0 0 Z M-25.16894531 23.50793457 C-29.04708588 29.71295947 -29.31886175 35.97098742 -29.29757977 43.12675285 C-29.2993328 43.87754032 -29.30108584 44.62832778 -29.302892 45.40186638 C-29.3075471 47.91981539 -29.30508776 50.43770654 -29.30265808 52.95565796 C-29.30452629 54.77829699 -29.30682704 56.60093562 -29.3095234 58.42357361 C-29.31564644 63.4340728 -29.31550722 68.44455531 -29.31432903 73.45505738 C-29.31412515 78.85802102 -29.31964251 84.26097929 -29.3243866 89.66394043 C-29.33269628 100.24971877 -29.33544157 110.83549153 -29.33599897 121.42127286 C-29.33647395 130.02422834 -29.33852776 138.62718198 -29.3416996 147.23013687 C-29.35050674 171.61335116 -29.35511884 195.99656105 -29.35436913 220.37977694 C-29.35432917 221.69453478 -29.35428921 223.00929262 -29.35424805 224.3638916 C-29.35420717 225.68025184 -29.35416629 226.99661207 -29.35412417 228.35286202 C-29.35371759 249.69308838 -29.36328981 271.03329399 -29.37738641 292.37351559 C-29.3917417 314.2779058 -29.39865708 336.1822874 -29.39779264 358.08668244 C-29.39746039 370.38742513 -29.40021954 382.68814933 -29.41097069 394.98888779 C-29.4200645 405.46061689 -29.42226013 415.93231912 -29.41546126 426.40405045 C-29.41219051 431.74775519 -29.41215942 437.09140832 -29.42081451 442.43510818 C-29.42865579 447.32660363 -29.4272724 452.21800635 -29.41853038 457.10949947 C-29.41699017 458.87930311 -29.41883112 460.64911359 -29.42439046 462.41890918 C-29.43144871 464.82519626 -29.42615841 467.23115792 -29.41783428 469.63743401 C-29.42280246 470.3238235 -29.42777064 471.01021299 -29.43288937 471.71740216 C-29.37812281 479.21062469 -27.92282952 485.56557931 -23.16894531 491.50793457 C-17.2254625 497.31933999 -11.51785183 498.75525588 -3.33847332 498.76520348 C-2.68505688 498.76870955 -2.03164044 498.77221563 -1.3584235 498.77582794 C0.82236053 498.7851023 3.00287519 498.78022902 5.18367004 498.77536011 C6.76651005 498.77909837 8.3493482 498.78370059 9.93218344 498.78909075 C14.27528744 498.80131436 18.61831436 498.80106104 22.96143162 498.798702 C27.6479906 498.79829368 32.33452492 498.80933445 37.02107239 498.81881714 C46.20034346 498.83542436 55.37958885 498.84092655 64.55887369 498.84204189 C72.02048644 498.84299245 79.48209072 498.84710314 86.94370079 498.85344315 C108.10130233 498.87105441 129.25888358 498.88028214 150.4164925 498.8787822 C151.55691374 498.87870229 152.69733499 498.87862237 153.87231445 498.87854004 C155.01412891 498.87845828 156.15594337 498.87837652 157.33235826 498.87829228 C175.8388578 498.8774793 194.34527596 498.89662025 212.85175196 498.92481677 C231.85657622 498.953544 250.86136078 498.96735717 269.8662073 498.96562922 C280.53499869 498.96496529 291.20370475 498.97045911 301.87247658 498.99198532 C310.95563331 499.01019492 320.03866604 499.01454621 329.12183312 499.00096647 C333.75499209 498.99443588 338.38791315 498.99432301 343.0210495 499.01167297 C347.26569247 499.0274045 351.5099089 499.02453933 355.75454148 499.00710471 C357.28680341 499.004035 358.81909718 499.00766614 360.35132156 499.01882486 C374.03374509 499.12473069 374.03374509 499.12473069 385.76178294 492.75791299 C390.81095948 487.3284031 392.13081789 482.19305282 392.08832359 474.85599041 C392.0935827 473.70621438 392.0935827 473.70621438 392.09894806 472.53321055 C392.10827797 469.95567749 392.10333466 467.37836958 392.09848022 464.80082703 C392.10221568 462.93780165 392.10681678 461.07477784 392.11221087 459.21175653 C392.12446919 454.08496891 392.12417707 448.95824642 392.12182212 443.83144748 C392.12141467 438.30507641 392.13244623 432.77872641 392.14193726 427.25236511 C392.15856368 416.42247038 392.16404754 405.59259741 392.16516201 394.76269098 C392.16611169 385.96138731 392.17021799 377.16009084 392.17656326 368.35878944 C392.19131247 347.47630343 392.20361251 326.5938213 392.20256615 305.71132946 C392.20253499 305.04340845 392.20250383 304.37548744 392.20247173 303.6873264 C392.20230551 300.30198396 392.20210743 296.91664152 392.20190232 293.53129908 C392.20186242 292.85895163 392.20182253 292.18660417 392.20178143 291.49388256 C392.20170056 290.13423191 392.20161696 288.77458127 392.20153065 287.41493062 C392.20030512 266.26060172 392.21531827 245.10633693 392.24267578 223.95202637 C392.27339547 200.18807604 392.29058301 176.42416162 392.28874934 152.66018659 C392.28808479 140.07659673 392.29360547 127.49307916 392.31510544 114.90950584 C392.33329235 104.19618311 392.33768504 93.48296544 392.32408659 82.76963397 C392.31754443 77.30234017 392.31748485 71.8352481 392.33479309 66.36797333 C392.35047352 61.36346999 392.34771164 56.35932918 392.33022483 51.35483495 C392.32714384 49.54395071 392.33082851 47.73303974 392.34194498 45.92218699 C392.35605846 43.46015334 392.34548666 40.99939268 392.32883263 38.53740215 C392.33876899 37.83468336 392.34870535 37.13196457 392.35894281 36.40795127 C392.26113522 29.56668895 389.78758262 24.50892905 385.08105469 19.69543457 C376.49780912 13.91825005 368.32605323 14.07961528 358.34472656 14.12698364 C356.75959705 14.12352461 355.17446994 14.1187584 353.58934784 14.11280191 C349.24459743 14.10029592 344.90004509 14.10646047 340.55529404 14.11576056 C335.86538104 14.12255235 331.17550195 14.11206918 326.4855957 14.1038208 C317.30243425 14.09048267 308.11934636 14.09336157 298.93618202 14.10205872 C291.47266664 14.10883454 284.00917187 14.10975243 276.5456543 14.10648727 C274.95213678 14.10579773 274.95213678 14.10579773 273.32642698 14.10509425 C271.1682771 14.10413507 269.01012722 14.10316243 266.85197735 14.10217647 C246.61615983 14.09362234 226.38038309 14.10345708 206.14457226 14.11957757 C188.78223348 14.13298077 171.41995488 14.13065268 154.05761719 14.11682129 C133.8940863 14.10076589 113.73059114 14.09444632 93.56705475 14.10365808 C91.41685486 14.10461373 89.26665497 14.10555684 87.11645508 14.10648727 C86.05852233 14.1069501 85.00058959 14.10741293 83.91059828 14.10788978 C76.45625927 14.11047978 69.00194292 14.10610843 61.54760742 14.09904861 C52.46296282 14.09063388 43.37839599 14.09291323 34.2937603 14.10889085 C29.65886022 14.11677388 25.02408979 14.11986456 20.38919067 14.10994339 C16.14536396 14.10099673 11.90178693 14.10592889 7.65798283 14.12187605 C6.12377195 14.12522396 4.58953993 14.12352952 3.05534267 14.11624868 C-8.21079615 14.06688913 -17.1669357 14.78425831 -25.16894531 23.50793457 Z " fill="#000002" transform="translate(74.1689453125,-0.5079345703125)"/>
<path d="M0 0 C8.47333328 7.28561819 15.14311673 19.0538399 16.7890625 30.19140625 C17.58013855 40.72443734 17.27326244 50.10942905 14.71875 60.3984375 C13.89857471 64.5082289 13.70121902 68.44817036 13.5625 72.625 C13.09953485 84.00198688 9.73367922 93.72401332 3 103 C2.030625 103.886875 1.06125 104.77375 0.0625 105.6875 C-2.40036111 107.91174899 -2.40036111 107.91174899 -1.875 111.4375 C-1.441875 113.2009375 -1.441875 113.2009375 -1 115 C-0.65606663 116.99820443 -0.32099847 118.99798324 0 121 C0.88300781 120.97679687 1.76601562 120.95359375 2.67578125 120.9296875 C18.84171665 120.68659073 32.6601153 123.56934852 44.91015625 134.7421875 C55.3256949 145.77579108 58.29313045 158.74310671 58.37109375 173.421875 C58.38012222 174.48488831 58.3891507 175.54790161 58.39845276 176.64312744 C58.41287906 178.87517509 58.42182288 181.10726429 58.42553711 183.33935547 C58.43751506 186.75429328 58.48684475 190.1674694 58.53710938 193.58203125 C58.54656586 195.75780374 58.55380459 197.93358724 58.55859375 200.109375 C58.57812607 201.12715027 58.59765839 202.14492554 58.61778259 203.19354248 C58.61170486 204.14513245 58.60562714 205.09672241 58.59936523 206.07714844 C58.60443588 206.90937927 58.60950653 207.74161011 58.61473083 208.59906006 C57.68732085 212.2212237 55.87365987 213.66005806 53 216 C50.27124287 216.48971778 48.16757435 216.67025285 45.44702148 216.62145996 C44.31884459 216.63104319 44.31884459 216.63104319 43.16787624 216.64082003 C40.651738 216.65606097 38.13717675 216.63561628 35.62109375 216.61523438 C33.8156787 216.61873586 32.01026672 216.62439475 30.2048645 216.63204956 C25.30394996 216.64630324 20.40359609 216.62923027 15.50273514 216.60576439 C10.37479099 216.58566508 5.24687034 216.59153447 0.11889648 216.59387207 C-8.49276991 216.59381849 -17.10421696 216.57405561 -25.71582031 216.54199219 C-35.67302577 216.50509899 -45.62994387 216.49631655 -55.58720875 216.5032897 C-65.16445103 216.50959425 -74.74159474 216.49884127 -84.31881714 216.47932434 C-88.39526778 216.47114811 -92.47166806 216.46844121 -96.54812622 216.47001648 C-101.34822021 216.47089522 -106.14804098 216.45668196 -110.9480629 216.43078995 C-112.71009115 216.42362585 -114.47214847 216.4215457 -116.23418808 216.42490768 C-118.6387626 216.4286206 -121.04253897 216.41388213 -123.44702148 216.39440918 C-124.14498116 216.39973711 -124.84294085 216.40506503 -125.56205082 216.41055441 C-129.86066979 216.35045862 -132.57442952 215.62246837 -136 213 C-137.19358202 210.61283597 -137.13928532 209.11435718 -137.16113281 206.44946289 C-137.17074036 205.50410172 -137.1803479 204.55874054 -137.19024658 203.58473206 C-137.19449646 202.55774704 -137.19874634 201.53076202 -137.203125 200.47265625 C-137.20882507 199.41396835 -137.21452515 198.35528046 -137.22039795 197.26451111 C-137.22986169 195.01578778 -137.23638736 192.7670505 -137.24023438 190.51831055 C-137.2498724 187.1076557 -137.2808548 183.69762094 -137.3125 180.28710938 C-137.3190369 178.0989619 -137.32428467 175.91081012 -137.328125 173.72265625 C-137.3404718 172.71388931 -137.3528186 171.70512238 -137.36553955 170.66578674 C-137.32641724 157.97223679 -133.52817201 145.15723059 -124.7890625 135.65625 C-111.32000214 123.18707621 -96.71495945 121.08575558 -79 120 C-76.13496341 112.95366472 -76.13496341 112.95366472 -76.9609375 105.7734375 C-78.01381614 104.47470902 -79.10922688 103.20964211 -80.23828125 101.9765625 C-88.5142036 92.69138132 -89.92872407 79.51825484 -91.22900391 67.66186523 C-91.81672483 62.6346002 -93.06019335 58.63866808 -95 54 C-98.56673747 36.81481038 -94.33309288 19.59640057 -85 5 C-80.25059081 -1.21924569 -74.40192991 -5.975647 -66.58984375 -7.45703125 C-62.54431953 -7.92598692 -58.56771137 -8.01641504 -54.5 -7.9375 C-51.29746672 -7.88737339 -48.55026835 -8.25688502 -45.4375 -9 C-29.31781874 -12.48465894 -13.39701333 -9.71045931 0 0 Z M-48.56640625 7.4140625 C-51.77751639 8.18720298 -54.47836156 7.81287359 -57.75 7.4375 C-62.71268619 6.92499321 -62.71268619 6.92499321 -67.4375 8.4375 C-72.60269105 13.60269105 -76.71498024 19.01052778 -79 26 C-78.81627212 28.34481046 -78.81627212 28.34481046 -78 30 C-76.45833358 28.62514468 -76.45833358 28.62514468 -75 27 C-75 26.34 -75 25.68 -75 25 C-74.43152344 24.7421875 -73.86304688 24.484375 -73.27734375 24.21875 C-69.9552265 22.44087593 -67.22058603 20.0402028 -64.31640625 17.65625 C-60.59006795 14.9918867 -57.14301266 13.70664907 -52.5625 13.625 C-51.84191406 13.59664062 -51.12132812 13.56828125 -50.37890625 13.5390625 C-43.36243242 14.89857631 -38.45183066 21.4238161 -33.76757812 26.3984375 C-30.07930261 30.2135932 -27.19212847 32.67750757 -21.71875 33.23046875 C-17.66173448 33.15189979 -13.98072152 32.81655826 -10 32 C-5.5092325 31.68311116 -1.98543683 31.75430842 2 34 C0.29945851 23.45664274 -3.92180308 15.98094784 -12.4609375 9.47265625 C-18.83356533 5.77653211 -24.54320282 4.4938928 -31.875 4.625 C-32.66801514 4.63007568 -33.46103027 4.63515137 -34.27807617 4.64038086 C-39.45477834 4.7512685 -43.70890667 5.57882002 -48.56640625 7.4140625 Z M-62.53125 34.46875 C-72.10384386 44.28368801 -76.35381246 54.96303508 -76.21875 68.671875 C-75.34840384 81.91357019 -70.95110767 93.08475848 -61 102 C-51.20950131 108.18888881 -41.11021442 109.67764483 -29.6953125 107.31640625 C-18.69110863 103.94234374 -10.29729976 97.32355876 -4.75 87.1875 C0.28605449 76.03623648 -0.2640588 63.38400162 -4.03125 51.83984375 C-5.16772922 49.17970765 -5.16772922 49.17970765 -7 46 C-8.6396875 46.2475 -8.6396875 46.2475 -10.3125 46.5 C-21.30966185 47.82121379 -30.48267521 47.57658489 -39.625 40.8125 C-43.35595881 37.75871347 -46.42877145 34.3948059 -49.39453125 30.6015625 C-54.73011843 25.27895728 -58.19243328 30.33411289 -62.53125 34.46875 Z M-63 118 C-63.66 120.64 -64.32 123.28 -65 126 C-62.3602212 128.2156504 -59.71207885 130.42108253 -57.0625 132.625 C-56.32708984 133.24246094 -55.59167969 133.85992187 -54.83398438 134.49609375 C-49.76997707 138.69767186 -44.5462176 142.46007061 -39 146 C-38.03320312 145.2265625 -37.06640625 144.453125 -36.0703125 143.65625 C-28.71354167 137.77083333 -21.35677083 131.88541667 -14 126 C-14.66 123.36 -15.32 120.72 -16 118 C-17.06476563 118.28875 -18.12953125 118.5775 -19.2265625 118.875 C-33.17374295 122.50685937 -45.00964804 123.17978007 -59 119 C-60.32 118.67 -61.64 118.34 -63 118 Z M-115.25 148.25 C-123.28720641 158.64263588 -122.48927959 169.60571144 -122.25 182.125 C-122.22990356 183.95831382 -122.21165835 185.79164891 -122.1953125 187.625 C-122.15499337 192.08429553 -122.07666599 196.54059496 -122 201 C-115.73 201 -109.46 201 -103 201 C-102.96261719 199.29070312 -102.92523438 197.58140625 -102.88671875 195.8203125 C-102.82107777 193.58851903 -102.7546298 191.35674919 -102.6875 189.125 C-102.66494141 187.99707031 -102.64238281 186.86914062 -102.61914062 185.70703125 C-102.58369141 184.63066406 -102.54824219 183.55429688 -102.51171875 182.4453125 C-102.48553467 181.45031738 -102.45935059 180.45532227 -102.43237305 179.43017578 C-102.28968994 178.62821777 -102.14700684 177.82625977 -102 177 C-98.53001271 174.68667514 -97.07490752 174.66042437 -93 175 C-92.01 175.66 -91.02 176.32 -90 177 C-89.505 188.88 -89.505 188.88 -89 201 C-56.33 201 -23.66 201 10 201 C10.33 193.41 10.66 185.82 11 178 C14 175 14 175 17.5625 174.6875 C21 175 21 175 23 177 C23.31884766 179.43017578 23.31884766 179.43017578 23.4140625 182.4453125 C23.45273438 183.52167969 23.49140625 184.59804687 23.53125 185.70703125 C23.57765625 187.39892578 23.57765625 187.39892578 23.625 189.125 C23.66367188 190.26066406 23.70234375 191.39632812 23.7421875 192.56640625 C23.83667233 195.37732987 23.91943321 198.18864304 24 201 C30.6 201 37.2 201 44 201 C44.04624777 196.48313417 44.08596932 191.96711044 44.10986328 187.45019531 C44.11983806 185.91794022 44.13342276 184.38570375 44.15087891 182.85351562 C44.30147209 169.28241219 44.11722683 156.15701545 34.60546875 145.4453125 C25.26026767 137.03235776 13.71570889 134.86171639 1.51953125 135.3203125 C-5.18781903 135.99342156 -9.43586869 139.93953698 -14.17480469 144.36425781 C-17.81387417 147.62559617 -21.75056616 150.52647204 -25.625 153.5 C-27.15925007 154.69740957 -28.69312987 155.89529378 -30.2265625 157.09375 C-36.35652903 161.88443409 -36.35652903 161.88443409 -39.71875 162.48828125 C-44.464207 161.78211205 -46.96189409 159.28957326 -50.5 156.1875 C-51.90922487 154.99629312 -53.31940055 153.80621025 -54.73046875 152.6171875 C-55.43864746 152.01358398 -56.14682617 151.40998047 -56.87646484 150.78808594 C-60.12721096 148.05085156 -63.46345545 145.42783004 -66.8125 142.8125 C-67.39257812 142.35576904 -67.97265625 141.89903809 -68.5703125 141.4284668 C-74.17117177 137.03483331 -77.46744352 135.63709875 -84.5625 135.6875 C-85.78042236 135.69595947 -85.78042236 135.69595947 -87.02294922 135.70458984 C-98.9644878 135.94576069 -107.03415265 139.54120181 -115.25 148.25 Z " fill="#000001" transform="translate(225,44)"/>
<path d="M0 0 C1.16198473 -0.01303874 2.32396946 -0.02607747 3.52116585 -0.03951132 C4.79858084 -0.02835771 6.07599583 -0.01720411 7.39212036 -0.00571251 C8.76216608 -0.01147231 10.13220408 -0.01941248 11.50222588 -0.02934873 C15.27099804 -0.05026549 19.03913903 -0.03988552 22.80791378 -0.02441764 C26.87071496 -0.01312756 30.93340587 -0.03055514 34.9961853 -0.04431725 C42.95671512 -0.06657936 50.91700956 -0.0617353 58.87754869 -0.04725404 C65.34578417 -0.03597346 71.81395356 -0.03442577 78.28219604 -0.03987312 C79.20191913 -0.04063929 80.12164221 -0.04140545 81.06923568 -0.04219484 C82.93749064 -0.04379342 84.80574558 -0.04541449 86.6740005 -0.04705779 C104.20286932 -0.061324 121.7316075 -0.04490891 139.26045489 -0.01805596 C154.30912887 0.00428362 169.35761002 0.00040373 184.40628052 -0.02264977 C201.87135304 -0.04939239 219.336311 -0.05995063 236.80140114 -0.04458845 C238.66287865 -0.04299566 240.52435619 -0.04142381 242.38583374 -0.03987312 C243.75974645 -0.03871606 243.75974645 -0.03871606 245.16141498 -0.03753562 C251.62374101 -0.03321399 258.08599453 -0.0405151 264.54830933 -0.05227089 C272.42110983 -0.06627738 280.29366101 -0.0625351 288.16643286 -0.03586717 C292.18522462 -0.02270385 296.20360031 -0.01761893 300.22238922 -0.03411293 C303.89890451 -0.04897423 307.57461675 -0.04088901 311.25105882 -0.01422517 C313.2163279 -0.005963 315.1816524 -0.02235229 317.14686394 -0.03951132 C318.30884867 -0.02647259 319.4708334 -0.01343385 320.66802979 0 C321.67287981 0.00081176 322.67772984 0.00162352 323.71302986 0.00245988 C326.33401489 0.6292057 326.33401489 0.6292057 328.68423271 2.94196856 C330.33401489 5.6292057 330.33401489 5.6292057 330.39651489 9.2542057 C329.33401489 12.6292057 329.33401489 12.6292057 327.12534428 14.31654799 C324.01752645 15.77803837 322.02858401 16.0050504 318.61024475 16.00672913 C316.88610651 16.01846399 316.88610651 16.01846399 315.12713718 16.03043592 C313.23975283 16.02039767 313.23975283 16.02039767 311.3142395 16.01015663 C309.96054933 16.01361365 308.60686197 16.01837851 307.2531805 16.02433836 C303.53433752 16.03687213 299.81572524 16.03066727 296.09688139 16.02137971 C292.08591358 16.01459926 288.07498577 16.02506546 284.06402588 16.03331947 C276.20695201 16.04666974 268.34996404 16.04377332 260.49288678 16.03508155 C254.10812502 16.0283105 247.72338736 16.02738578 241.33862305 16.030653 C240.43042562 16.0311127 239.5222282 16.0315724 238.58650964 16.03204603 C236.74160996 16.03300519 234.89671029 16.03397783 233.05181062 16.0349638 C215.74612521 16.04352148 198.44048745 16.03367763 181.13480985 16.0175627 C166.28094027 16.00415918 151.42714102 16.00648716 136.57327271 16.02031898 C119.33014168 16.03636812 102.08705244 16.04269748 84.84391499 16.03348219 C83.00574558 16.03252653 81.16757616 16.03158342 79.32940674 16.030653 C78.42495707 16.03019017 77.5205074 16.02972735 76.58865017 16.0292505 C70.21045711 16.0266586 63.83229052 16.03103589 57.45410156 16.03809166 C49.68278868 16.04649945 41.91156672 16.04424173 34.14026427 16.02824943 C30.17408731 16.02035697 26.20806203 16.01729163 22.24188614 16.02719688 C18.6124215 16.03612424 14.98324941 16.03124356 11.35381138 16.01526423 C9.41617151 16.01031594 7.47851139 16.0201305 5.5408926 16.03043592 C4.3914671 16.02261268 3.24204161 16.01478944 2.05778503 16.00672913 C1.06600785 16.00624207 0.07423067 16.00575501 -0.94760036 16.0052532 C-4.19662245 15.55580004 -6.06741742 14.61441487 -8.66598511 12.6292057 C-9.72848511 9.2542057 -9.72848511 9.2542057 -9.66598511 5.6292057 C-6.92811067 1.16963646 -5.20386122 0.00420391 0 0 Z " fill="#000001" transform="translate(95.66598510742188,280.37079429626465)"/>
<path d="M0 0 C1.15091784 -0.00782324 2.30183569 -0.01564648 3.48762983 -0.02370679 C4.75268986 -0.01701463 6.01774988 -0.01032246 7.32114506 -0.00342751 C8.67809697 -0.00688342 10.03504608 -0.01164753 11.39198929 -0.01760924 C15.12449276 -0.03015835 18.85676678 -0.02393119 22.58927119 -0.01465058 C26.61320831 -0.00787631 30.63710536 -0.01833329 34.66103458 -0.02659035 C42.54565103 -0.03994761 50.43018192 -0.03704098 58.31480175 -0.02835242 C64.72199396 -0.02158364 71.12916216 -0.02065567 77.53635693 -0.02392387 C78.90301934 -0.02461342 78.90301934 -0.02461342 80.29729109 -0.0253169 C82.1480693 -0.02627606 83.99884751 -0.0272487 85.84962571 -0.02823468 C103.21491826 -0.03679453 120.58016334 -0.02694535 137.94544811 -0.01083358 C152.85106412 0.00256789 167.75661003 0.00024408 182.66222477 -0.01358986 C199.96284724 -0.02963904 217.26342806 -0.03596813 234.56405693 -0.02675307 C236.4084206 -0.0257974 238.25278427 -0.02485429 240.09714794 -0.02392387 C241.00465671 -0.02346105 241.91216547 -0.02299822 242.84717451 -0.02252137 C249.24739731 -0.01992933 255.64759374 -0.02430714 262.04781246 -0.03136253 C269.84659782 -0.03977048 277.64529257 -0.03751236 285.44406753 -0.0215203 C289.42441422 -0.01362771 293.40460978 -0.0105627 297.38495541 -0.02046776 C301.02741252 -0.02939497 304.66957814 -0.02451465 308.31200875 -0.0085351 C310.25665524 -0.00358664 312.20132191 -0.01340156 314.1459474 -0.02370679 C315.87623578 -0.01197193 315.87623578 -0.01197193 317.64147949 0 C318.63683651 0.00048706 319.63219353 0.00097411 320.65771288 0.00147593 C323.91133122 0.45031621 325.78047836 1.39126722 328.38366032 3.37752342 C329.50866032 6.75252342 329.50866032 6.75252342 329.38366032 10.37752342 C327.73554846 12.99884443 327.03013882 13.95277958 324.38366032 15.37752342 C320.02573809 16.13904998 315.70215463 16.05133006 311.28795719 16.01244164 C309.92601066 16.0182033 308.56407189 16.02614473 307.20214939 16.03607786 C303.4603684 16.05696898 299.71922424 16.04662625 295.97744083 16.03114676 C291.94190479 16.01984624 287.9064792 16.03728947 283.870965 16.05104637 C275.96571577 16.07329729 268.06070369 16.0684694 260.1554451 16.05398317 C253.73157839 16.04269819 247.30777823 16.04115681 240.88390446 16.04660225 C239.97015631 16.04736841 239.05640817 16.04813458 238.11497068 16.04892396 C236.25879699 16.05052256 234.40262332 16.05214363 232.54644966 16.05378692 C215.13486145 16.06804985 197.72340479 16.05164318 180.31183815 16.02478509 C165.36696298 16.00244581 150.42228198 16.00632578 135.47741032 16.02937889 C118.12878312 16.05612731 100.78027126 16.0666765 83.43162632 16.05131757 C81.58222296 16.0497248 79.73281957 16.04815295 77.88341618 16.04660225 C76.97343829 16.04583087 76.0634604 16.04505949 75.12590742 16.04426474 C68.7086231 16.03994486 62.29141184 16.04724049 55.87413883 16.05900002 C48.05518931 16.07301292 40.23649082 16.06925067 32.41757011 16.0425963 C28.42700031 16.02944165 24.43684924 16.02433337 20.44628239 16.04084206 C16.79442538 16.05572121 13.14337595 16.04758843 9.49159241 16.0209543 C7.54202225 16.01270671 5.59239621 16.02906554 3.64288425 16.04624045 C-5.79194836 15.93985934 -5.79194836 15.93985934 -8.93091488 13.06440353 C-10.61633968 10.37752342 -10.61633968 10.37752342 -10.67883968 6.75252342 C-8.86062648 0.97702266 -5.78405784 0.00283077 0 0 Z " fill="#000001" transform="translate(96.61633968353271,371.6224765777588)"/>
<path d="M0 0 C1.15861933 -0.00384115 2.31723866 -0.00768229 3.51096767 -0.01163983 C4.79489046 -0.01077335 6.07881326 -0.00990687 7.4016428 -0.00901413 C8.77066541 -0.01159638 10.13968726 -0.01460915 11.50870806 -0.01801753 C15.2837238 -0.02610707 19.05872055 -0.02787818 22.83374393 -0.028615 C26.89993069 -0.03046213 30.96610751 -0.03800767 35.03228855 -0.04475021 C43.92878068 -0.05834726 52.82526831 -0.0643602 61.72176909 -0.06876087 C67.27274118 -0.07152061 72.82371152 -0.07575743 78.37468243 -0.08026505 C93.73259306 -0.0924588 109.09050229 -0.10275836 124.44841766 -0.10614014 C125.43183967 -0.1063597 126.41526168 -0.10657927 127.42848435 -0.10680549 C128.90721459 -0.10713291 128.90721459 -0.10713291 130.41581815 -0.10746694 C132.41358022 -0.10791041 134.41134228 -0.10835697 136.40910435 -0.10880661 C137.8955536 -0.10913875 137.8955536 -0.10913875 139.41203213 -0.10947761 C155.47921746 -0.11342797 171.5463575 -0.13088875 187.61352532 -0.15416613 C204.0948358 -0.17785156 220.57612353 -0.19034068 237.05745131 -0.19150805 C246.31706302 -0.19242633 255.57661571 -0.19821685 264.8362112 -0.21632767 C272.71889925 -0.23169072 280.60151003 -0.23687162 288.48421019 -0.22858956 C292.50885854 -0.22466971 296.53335113 -0.22567729 300.55798054 -0.23964691 C304.23864049 -0.25230626 307.91902636 -0.25125927 311.5996855 -0.2390562 C313.56977559 -0.23614792 315.53987008 -0.24809498 317.5099234 -0.26047826 C318.67115048 -0.25388841 319.83237756 -0.24729857 321.02879333 -0.24050903 C322.03510723 -0.24110612 323.04142112 -0.24170321 324.07822937 -0.24231839 C326.57731724 0.13142776 326.57731724 0.13142776 328.36550623 1.47498631 C330.23958331 4.03668854 330.51425201 5.97816648 330.57731724 9.13142776 C328.65231561 12.24597703 327.58438281 13.89160168 323.95518154 14.75587225 C322.94978944 14.75559987 321.94439734 14.75532748 320.90853882 14.75504684 C319.74593739 14.76685218 318.58333596 14.77865752 317.38550419 14.7908206 C316.10740708 14.77830275 314.82930997 14.7657849 313.51248264 14.75288773 C312.14172642 14.75721558 310.77097564 14.76373054 309.40023905 14.77224779 C305.62951368 14.78927721 301.85945004 14.7750324 298.0887593 14.75573301 C294.02394978 14.74033465 289.95922286 14.75370039 285.89441013 14.76347733 C277.93018781 14.77802092 269.96621996 14.76575306 262.00202172 14.74436408 C252.73327663 14.7203828 243.46459022 14.72206665 234.19582099 14.72466999 C217.66204478 14.72836211 201.12838869 14.70751728 184.59465122 14.67341995 C168.53960732 14.64032197 152.48468949 14.62616233 136.42961216 14.63240433 C118.95833538 14.63916349 101.48711146 14.63672202 84.0158425 14.61704493 C83.09257802 14.61600544 82.16931355 14.61496595 81.21807136 14.61389497 C79.36358539 14.61180403 77.50909943 14.60969305 75.65461351 14.6075618 C69.18883547 14.60065735 62.7230737 14.59999835 56.25729275 14.60144424 C48.38194873 14.60288175 40.50670771 14.5932333 32.6313979 14.56949788 C28.61080206 14.55761207 24.59035005 14.55052981 20.56973743 14.55633545 C16.89283087 14.56148805 13.21622879 14.55288782 9.53937442 14.53306085 C7.57138886 14.52603758 5.60336794 14.53379266 3.63538688 14.54198217 C2.4753932 14.53292553 1.31539952 14.52386889 0.12025452 14.51453781 C-1.3875901 14.51218101 -1.3875901 14.51218101 -2.92589623 14.50977659 C-5.42268276 14.13142776 -5.42268276 14.13142776 -7.21833509 12.79107714 C-9.0247676 10.30172572 -9.23673772 8.16853017 -9.42268276 5.13142776 C-7.61285923 -0.01960845 -5.08725109 0.00630248 0 0 Z " fill="#000001" transform="translate(95.422682762146,326.8685722351074)"/>
<path d="M0 0 C1.03479204 -0.00807831 1.03479204 -0.00807831 2.09048897 -0.01631981 C4.4075165 -0.03065416 6.72397712 -0.02348251 9.04103088 -0.01637268 C10.69999147 -0.02207342 12.35894812 -0.02903653 14.01789856 -0.03717041 C18.52823254 -0.05515006 23.03837248 -0.05392441 27.54873157 -0.04822803 C31.31130636 -0.04514301 35.07384352 -0.05122097 38.83641297 -0.05726677 C47.71145402 -0.07132626 56.58639884 -0.06973898 65.46144104 -0.05836487 C74.62340698 -0.04688265 83.78508023 -0.06095778 92.9470076 -0.08776134 C100.80780841 -0.10989906 108.66851722 -0.11656007 116.529347 -0.11068493 C121.22661059 -0.10730946 125.92368655 -0.10976939 130.620924 -0.12693596 C135.03772155 -0.14237232 139.45408469 -0.13848662 143.87086487 -0.11963081 C145.49303159 -0.11593568 147.11523027 -0.11908026 148.73736763 -0.1295166 C150.94992816 -0.14266603 153.1610377 -0.13123505 155.37353516 -0.11352539 C157.23155589 -0.11321146 157.23155589 -0.11321146 159.12711239 -0.1128912 C162.85251084 0.48420761 164.04790269 1.36674367 166.2502594 4.38768005 C166.97374051 10.27888342 166.97374051 10.27888342 165.14714718 13.0782938 C162.28542314 15.05368853 159.91439227 14.76862674 156.46255493 14.77536011 C155.76861002 14.78074565 155.07466511 14.78613118 154.35969156 14.79167992 C152.02884558 14.80601477 149.6985631 14.79884248 147.36769104 14.79173279 C145.69887839 14.7974335 144.03006965 14.8043966 142.36126709 14.81253052 C137.8240748 14.83051046 133.28707539 14.82928446 128.74985814 14.82358813 C124.96491547 14.82050316 121.18001023 14.82658103 117.39507288 14.83262688 C108.4672943 14.84668646 99.53961138 14.845099 90.61183167 14.83372498 C81.39533481 14.82224273 72.1791289 14.83631792 62.96267039 14.86312145 C55.05516095 14.88525895 47.14774298 14.89192023 39.24020475 14.88604504 C34.51499591 14.88266952 29.78997358 14.88512983 25.06479073 14.90229607 C20.62172923 14.91773207 16.17909959 14.91384711 11.73605537 14.89499092 C10.1042133 14.89129569 8.47233947 14.89444064 6.84052658 14.90487671 C4.61483179 14.91802546 2.39057958 14.9065957 0.16494751 14.8888855 C-1.70413474 14.88857157 -1.70413474 14.88857157 -3.61097622 14.8882513 C-6.7497406 14.38768005 -6.7497406 14.38768005 -9.18581486 12.57901096 C-10.7497406 10.38768005 -10.7497406 10.38768005 -10.6872406 6.82518005 C-8.93053473 0.38392519 -6.4423805 0.01264174 0 0 Z " fill="#000001" transform="translate(96.74974060058594,417.61231994628906)"/>
<path d="M0 0 C1.04608429 -0.0087616 2.09216858 -0.01752319 3.16995239 -0.02655029 C6.62544312 -0.04854447 10.07965266 -0.03399033 13.53515625 -0.01708984 C15.93742112 -0.02045794 18.33968433 -0.0253105 20.74194336 -0.03158569 C25.77571849 -0.0389571 30.8090499 -0.02824215 35.84277344 -0.00488281 C42.29611021 0.02360425 48.74840731 0.00720184 55.20170593 -0.02274513 C60.16198566 -0.04081033 65.12201877 -0.03506345 70.08230591 -0.02210617 C72.46176272 -0.01877005 74.84124191 -0.0228664 77.22067261 -0.03450394 C80.54615611 -0.04719899 83.86995456 -0.02785191 87.1953125 0 C88.17936066 -0.01012115 89.16340881 -0.02024231 90.17727661 -0.03067017 C94.78974289 0.04092101 96.93889208 0.16309141 100.74780273 2.96084595 C102.59765625 5.64697266 102.59765625 5.64697266 102.59765625 9.27197266 C101.61176675 12.59934972 101.25262919 13.61904261 98.59765625 15.64697266 C96.52177525 16.02728939 96.52177525 16.02728939 94.08778381 16.03465271 C93.16388351 16.04455734 92.23998322 16.05446198 91.28808594 16.06466675 C90.27657471 16.0601651 89.26506348 16.05566345 88.22290039 16.05102539 C87.15599472 16.05788864 86.08908905 16.06475189 84.98985291 16.07182312 C81.45403837 16.09016297 77.91866451 16.08624324 74.3828125 16.08056641 C71.93045405 16.08512479 69.47809687 16.09042933 67.02574158 16.09645081 C61.88177303 16.10539609 56.73795962 16.10294263 51.59399414 16.09301758 C44.99492844 16.08152715 38.39639777 16.10173399 31.79740238 16.13093472 C26.73169032 16.14926189 21.66610729 16.14901116 16.60037041 16.1432972 C14.16705004 16.14314355 11.73372116 16.14922337 9.30043221 16.16158867 C5.90054685 16.17643033 2.50166028 16.16587082 -0.89819336 16.14868164 C-2.41242386 16.16318359 -2.41242386 16.16318359 -3.95724487 16.17797852 C-10.75130671 16.10588152 -10.75130671 16.10588152 -14.0236969 13.79920959 C-15.94945888 10.79285879 -16.04619148 9.15236583 -15.40234375 5.64697266 C-11.12562552 -0.36756047 -6.80270076 -0.06996729 0 0 Z " fill="#000002" transform="translate(313.40234375,210.35302734375)"/>
<path d="M0 0 C0.81059152 -0.0015081 1.62118303 -0.0030162 2.45633793 -0.00457001 C3.38865238 -0.0158493 4.32096684 -0.0271286 5.28153324 -0.03874969 C6.30239521 -0.03065277 7.32325718 -0.02255585 8.37505436 -0.01421356 C9.4517136 -0.02122284 10.52837284 -0.02823212 11.63765812 -0.0354538 C15.20606422 -0.05309679 18.77368084 -0.04138725 22.34209538 -0.02788544 C24.81687415 -0.03057872 27.2916519 -0.03445977 29.76642704 -0.03948212 C34.95752361 -0.0453859 40.14834518 -0.03678625 45.33940983 -0.01811981 C51.99910738 0.00465812 58.65789081 -0.0084406 65.31760406 -0.03240967 C70.42965411 -0.04685374 75.54155084 -0.04226773 80.65360546 -0.0318985 C83.10924766 -0.02922677 85.5649037 -0.03251656 88.02052975 -0.04181671 C91.45158033 -0.0519576 94.88158204 -0.03651362 98.31255436 -0.01421356 C99.3313921 -0.02231049 100.35022984 -0.03040741 101.39994144 -0.03874969 C108.23121673 0.04364701 108.23121673 0.04364701 111.57465458 2.31305695 C112.90850163 4.50336456 112.90850163 4.50336456 112.84600163 8.06586456 C111.91656636 11.47379387 111.60944384 12.45112093 108.90850163 14.50336456 C106.83262062 14.8836813 106.83262062 14.8836813 104.39862919 14.89104462 C103.47472889 14.90094925 102.55082859 14.91085388 101.59893131 14.92105865 C100.58742008 14.91655701 99.57590885 14.91205536 98.53374577 14.9074173 C97.4668401 14.91428055 96.39993443 14.9211438 95.30069828 14.92821503 C91.76488375 14.94655487 88.22950988 14.94263514 84.69365788 14.93695831 C82.24129942 14.9415167 79.78894225 14.94682124 77.33658695 14.95284271 C72.19261841 14.961788 67.04880499 14.95933454 61.90483952 14.94940948 C55.30577382 14.93791906 48.70724314 14.95812589 42.10824776 14.98732662 C37.0425357 15.0056538 31.97695266 15.00540306 26.91121578 14.9996891 C24.47789541 14.99953546 22.04456653 15.00561528 19.61127758 15.01798058 C16.21139223 15.03282223 12.81250565 15.02226273 9.41265202 15.00507355 C7.89842152 15.0195755 7.89842152 15.0195755 6.3536005 15.03437042 C-0.43708661 14.96230924 -0.43708661 14.96230924 -3.72066402 12.65950775 C-5.5910864 9.71757793 -5.59096844 7.92830213 -5.09149837 4.50336456 C-2.89666223 0.69714475 -2.89666223 0.69714475 0 0 Z " fill="#000001" transform="translate(303.09149837493896,115.49663543701172)"/>
<path d="M0 0 C0.81059152 -0.0015081 1.62118303 -0.0030162 2.45633793 -0.00457001 C3.38865238 -0.0158493 4.32096684 -0.0271286 5.28153324 -0.03874969 C6.30239521 -0.03065277 7.32325718 -0.02255585 8.37505436 -0.01421356 C9.4517136 -0.02122284 10.52837284 -0.02823212 11.63765812 -0.0354538 C15.20606422 -0.05309679 18.77368084 -0.04138725 22.34209538 -0.02788544 C24.81687415 -0.03057872 27.2916519 -0.03445977 29.76642704 -0.03948212 C34.95752361 -0.0453859 40.14834518 -0.03678625 45.33940983 -0.01811981 C51.99910738 0.00465812 58.65789081 -0.0084406 65.31760406 -0.03240967 C70.42965411 -0.04685374 75.54155084 -0.04226773 80.65360546 -0.0318985 C83.10924766 -0.02922677 85.5649037 -0.03251656 88.02052975 -0.04181671 C91.45158033 -0.0519576 94.88158204 -0.03651362 98.31255436 -0.01421356 C99.3313921 -0.02231049 100.35022984 -0.03040741 101.39994144 -0.03874969 C108.23121673 0.04364701 108.23121673 0.04364701 111.57465458 2.31305695 C112.90850163 4.50336456 112.90850163 4.50336456 112.84600163 8.06586456 C111.91656636 11.47379387 111.60944384 12.45112093 108.90850163 14.50336456 C106.83262062 14.8836813 106.83262062 14.8836813 104.39862919 14.89104462 C103.47472889 14.90094925 102.55082859 14.91085388 101.59893131 14.92105865 C100.58742008 14.91655701 99.57590885 14.91205536 98.53374577 14.9074173 C97.4668401 14.91428055 96.39993443 14.9211438 95.30069828 14.92821503 C91.76488375 14.94655487 88.22950988 14.94263514 84.69365788 14.93695831 C82.24129942 14.9415167 79.78894225 14.94682124 77.33658695 14.95284271 C72.19261841 14.961788 67.04880499 14.95933454 61.90483952 14.94940948 C55.30577382 14.93791906 48.70724314 14.95812589 42.10824776 14.98732662 C37.0425357 15.0056538 31.97695266 15.00540306 26.91121578 14.9996891 C24.47789541 14.99953546 22.04456653 15.00561528 19.61127758 15.01798058 C16.21139223 15.03282223 12.81250565 15.02226273 9.41265202 15.00507355 C7.89842152 15.0195755 7.89842152 15.0195755 6.3536005 15.03437042 C-0.43708661 14.96230924 -0.43708661 14.96230924 -3.72066402 12.65950775 C-5.5910864 9.71757793 -5.59096844 7.92830213 -5.09149837 4.50336456 C-2.89666223 0.69714475 -2.89666223 0.69714475 0 0 Z " fill="#000001" transform="translate(303.09149837493896,67.49663543701172)"/>
<path d="M0 0 C1.60298698 -0.00569504 1.60298698 -0.00569504 3.23835754 -0.01150513 C6.77370471 -0.01891968 10.30823163 0.00248414 13.84350586 0.02490234 C16.29682824 0.02728615 18.75015247 0.02819223 21.20347595 0.02767944 C26.34572776 0.03080894 31.48770106 0.04738726 36.62988281 0.07421875 C43.23001377 0.10821643 49.82983877 0.11584691 56.43004704 0.11432838 C61.49571162 0.11487152 66.56130896 0.12582928 71.62695122 0.14033127 C74.06108529 0.146707 76.495227 0.15063997 78.92936897 0.15211868 C82.32674336 0.15644237 85.72378957 0.17392312 89.12109375 0.1953125 C90.13260498 0.19440613 91.14411621 0.19349976 92.1862793 0.19256592 C93.57212975 0.20536087 93.57212975 0.20536087 94.98597717 0.21841431 C95.78919435 0.221766 96.59241152 0.22511768 97.41996861 0.22857094 C99.49584961 0.48583984 99.49584961 0.48583984 102.49584961 2.48583984 C103.59504483 6.36966297 103.97858122 8.51682164 102.15527344 12.17686462 C98.0768543 15.71784543 94.24513339 15.17770106 89.00756836 15.11694336 C87.94051666 15.12409866 86.87346497 15.13125397 85.77407837 15.1386261 C82.24340128 15.15554855 78.71398752 15.13608835 75.18334961 15.11474609 C72.7324208 15.11557446 70.28149205 15.1180326 67.83056641 15.12205505 C62.69245697 15.12491551 57.55478285 15.11018686 52.41674805 15.08276367 C45.82551276 15.04868125 39.23505612 15.05469719 32.64378357 15.07342625 C27.58233127 15.08398695 22.52106064 15.07506672 17.45962524 15.06004143 C15.02910908 15.05485237 12.598574 15.05535015 10.1680603 15.06158638 C6.77300111 15.06702709 3.37906244 15.04669841 -0.01586914 15.01928711 C-1.52774307 15.02907593 -1.52774307 15.02907593 -3.07015991 15.0390625 C-9.85018322 14.94582307 -9.85018322 14.94582307 -13.12841797 12.63999939 C-15.02156457 9.67565854 -15.07939248 7.93729239 -14.50415039 4.48583984 C-11.01970658 -0.98167579 -5.82536205 -0.06485603 0 0 Z " fill="#000001" transform="translate(320.504150390625,163.51416015625)"/>
<path d="M0 0 C0.91245483 -0.00365067 1.82490967 -0.00730133 2.76501465 -0.01106262 C5.78623977 -0.01917976 8.80693051 -0.00554824 11.828125 0.0090332 C13.92415364 0.00955167 16.02018278 0.00903449 18.11621094 0.00752258 C22.51114146 0.00761236 26.90588874 0.01805279 31.30078125 0.03613281 C36.94024346 0.05882007 42.57943782 0.05936462 48.21893311 0.05261517 C52.54771311 0.04927703 56.87643181 0.05590235 61.2052002 0.0657444 C63.28486816 0.06959937 65.36454294 0.07074339 67.44421387 0.06915855 C70.34835858 0.06878857 73.25215717 0.08138956 76.15625 0.09765625 C77.45145569 0.09394012 77.45145569 0.09394012 78.77282715 0.09014893 C84.73500804 0.14356981 84.73500804 0.14356981 88.078125 2.37231445 C89.19063125 6.30316985 89.59255615 8.40481734 87.64674377 12.06433105 C83.91861988 15.41416566 80.90025823 15.06247442 76.04272461 14.98754883 C74.67382332 14.99587234 74.67382332 14.99587234 73.27726746 15.00436401 C70.26113358 15.01617374 67.24649749 14.99187337 64.23046875 14.96606445 C62.13587004 14.9643538 60.04126919 14.96441857 57.94667053 14.96618652 C53.5575817 14.96453258 49.1690032 14.94581899 44.7800293 14.91430664 C39.14833626 14.87460453 33.51731116 14.87026376 27.88550472 14.87776947 C23.56097776 14.88083567 19.23660157 14.86873149 14.91211128 14.85163879 C12.83524076 14.8445979 10.75835315 14.84148557 8.68147087 14.84233093 C5.78204195 14.84053751 2.88342055 14.81919543 -0.01586914 14.79223633 C-0.87776855 14.79516693 -1.73966797 14.79809753 -2.62768555 14.80111694 C-8.50012565 14.716671 -8.50012565 14.716671 -10.64087582 12.96875763 C-12.23604367 10.98078225 -12.32556303 9.89686075 -12.296875 7.37231445 C-12.30460937 6.69168945 -12.31234375 6.01106445 -12.3203125 5.30981445 C-11.03824555 -0.92455033 -5.15307757 -0.04561682 0 0 Z " fill="#000002" transform="translate(336.921875,463.627685546875)"/>
</svg>
